# xmcd
#
# Track frame offsets:
#	150
#	18052
#	30944
#	49678
#	71568
#	100660
#	112778
#	129526
#	148276
#	161158
#	176101
#	197014
#	217012
#	233564
#	248956
#	268300
#	292408
#	308877
#	324880
#
# Disc length: 4571 seconds
#
# Revision: 0
# Processed by: cddbd v1.5.1PL0 Copyright (c) Steve Scherf et al.
# Submitted via: audiograbber 1.83.01
#
DISCID=1611d913
DTITLE=Various Artist - Songs For Mom 1
DYEAR=1900
DGENRE=
TTITLE0=Alan Jackson - I'll Go On Loving You
TTITLE1=Alan Jackson - The Angels Cried (Duet with A
TTITLE2=Amy Grant - El Shaddai
TTITLE3=Bette Midler - Wind Beneath My Wings
TTITLE4=Breaks and Sampled - Singing A Song For My Mother (1973)
TTITLE5=Carrie Underwood - I Want To Be Inside Your Heaven
TTITLE6=Celine Dion - A Mother's Prayer
TTITLE7=Celine Dion - Immortality
TTITLE8=Celine Dion - Tears In Heaven (live)
TTITLE9=Celine Dion and Andrea Bocelli - The Prayer
TTITLE10=Eric Clapton - Tears in Heaven
TTITLE11=Garth Brooks - I will sail my vessel
TTITLE12=Garth Brooks - If Tomorrow Never Comes
TTITLE13=Garth Brooks - Unanswered Prayers
TTITLE14=George Strait - i'll see you on the other side
TTITLE15=Joan Osborne - What If God Was One Of Us
TTITLE16=Kelly Clarkson - Because of You
TTITLE17=Mariah Carey - I can't live (If living is Without You)
TTITLE18=Michelle Tumes - Lovely
EXTD=
EXTT0=
EXTT1=
EXTT2=
EXTT3=
EXTT4=
EXTT5=
EXTT6=
EXTT7=
EXTT8=
EXTT9=
EXTT10=
EXTT11=
EXTT12=
EXTT13=
EXTT14=
EXTT15=
EXTT16=
EXTT17=
EXTT18=
PLAYORDER=
